<?xml version="1.0" standalone="no"?>
<!DOCTYPE svg PUBLIC "-//W3C//DTD SVG 20010904//EN"
 "http://www.w3.org/TR/2001/REC-SVG-20010904/DTD/svg10.dtd">
<svg version="1.0" xmlns="http://www.w3.org/2000/svg"
 width="256.000000pt" height="256.000000pt" viewBox="0 0 256.000000 256.000000"
 preserveAspectRatio="xMidYMid meet">
<metadata>
Created by potrace 1.14, written by Peter Selinger 2001-2017
</metadata>
<g transform="translate(0.000000,256.000000) scale(0.100000,-0.100000)"
fill="#000000" stroke="none">
<path d="M592 2144 c-7 -8 -17 -12 -22 -9 -6 3 -7 -1 -4 -9 3 -9 1 -16 -5 -16
-6 0 -11 6 -11 13 0 6 -5 4 -11 -6 -8 -14 -14 -16 -25 -6 -11 9 -14 8 -14 -7
0 -14 -2 -16 -9 -6 -12 19 -24 15 -39 -13 -8 -16 -19 -23 -32 -20 -11 2 -18 0
-15 -6 4 -5 1 -9 -4 -9 -6 0 -11 5 -11 12 0 6 -11 1 -24 -11 -14 -13 -22 -29
-20 -36 4 -8 -3 -11 -19 -10 -21 3 -25 -1 -22 -20 2 -22 -33 -75 -50 -75 -5 0
2 11 14 24 15 16 19 26 12 31 -7 4 -10 1 -9 -7 2 -7 -3 -12 -10 -10 -8 1 -11
-2 -8 -7 4 -5 2 -13 -4 -16 -8 -5 -7 -12 2 -23 8 -9 8 -13 2 -9 -15 9 -25 -18
-12 -31 7 -7 2 -15 -16 -27 -14 -9 -28 -25 -31 -36 -4 -11 -10 -17 -14 -15 -4
3 -13 0 -21 -6 -13 -8 -12 -9 2 -5 10 4 18 -1 21 -13 3 -12 0 -17 -8 -14 -6 3
-20 -7 -30 -22 -9 -14 -13 -24 -7 -20 5 3 13 -1 16 -10 3 -8 2 -12 -4 -9 -6 3
-10 3 -11 -2 0 -4 -2 -16 -4 -25 -2 -10 4 -23 13 -29 15 -9 15 -10 -1 -5 -15
5 -17 0 -14 -29 2 -19 1 -33 -2 -30 -4 2 -7 -5 -7 -15 0 -14 4 -16 12 -9 9 8
11 5 7 -10 -3 -12 -10 -21 -17 -22 -6 0 -2 -4 9 -9 18 -8 18 -9 -5 -10 -23 -1
-23 -2 -5 -10 19 -8 19 -9 -2 -9 -26 -1 -38 -17 -22 -27 8 -4 9 -3 5 4 -4 7
-1 12 8 12 8 0 18 -6 22 -12 4 -7 4 -10 -1 -6 -9 8 -40 -20 -31 -29 3 -3 0
-13 -7 -21 -9 -13 -9 -14 1 -8 7 4 12 2 12 -4 0 -6 4 -8 10 -5 5 3 10 0 11 -7
0 -7 2 -21 4 -30 2 -12 -2 -15 -13 -11 -10 4 -14 3 -10 -2 4 -4 2 -15 -5 -23
-10 -13 -9 -14 10 -3 21 11 22 10 13 -13 -7 -20 -6 -28 8 -35 9 -6 12 -11 6
-11 -7 0 -14 -7 -17 -14 -4 -10 -1 -13 8 -10 10 4 13 0 10 -15 -2 -12 -6 -25
-10 -31 -3 -5 3 -14 14 -20 12 -6 18 -16 15 -25 -4 -8 -10 -12 -15 -9 -5 3 -6
-2 -3 -10 6 -15 25 -21 49 -16 5 1 1 -8 -9 -19 -17 -19 -17 -21 -3 -21 10 0
17 -4 17 -10 0 -5 -8 -10 -17 -10 -15 0 -16 -2 -3 -9 8 -6 19 -7 25 -5 5 3 2
-1 -8 -9 -14 -12 -15 -16 -4 -20 8 -3 20 0 27 6 10 10 10 8 1 -9 -8 -18 -7
-25 7 -35 15 -13 16 -12 3 4 -9 11 -10 17 -2 17 6 0 12 -4 12 -10 1 -5 3 -14
4 -20 1 -5 3 -14 4 -20 0 -5 9 -10 19 -11 15 0 14 -2 -3 -10 -15 -7 -12 -8 15
-4 30 5 32 4 16 -8 -17 -12 -17 -15 -3 -29 9 -9 13 -19 9 -23 -4 -5 -1 -5 6
-1 11 6 10 12 -4 29 -18 22 -18 22 6 0 19 -18 21 -25 11 -36 -10 -13 -7 -15
19 -13 16 1 30 -2 30 -7 0 -4 4 -6 9 -2 5 3 12 1 15 -4 4 -5 1 -13 -5 -17 -8
-5 -9 -3 -4 6 5 9 4 11 -4 6 -18 -12 -1 -28 25 -23 15 2 33 -3 46 -14 11 -11
17 -19 12 -19 -11 0 17 -20 29 -20 4 0 7 5 7 11 0 5 -5 7 -12 3 -7 -5 -8 -3
-3 5 5 9 10 10 18 2 9 -9 8 -17 -1 -34 -12 -21 -12 -21 8 2 15 18 20 19 20 7
0 -9 5 -16 11 -16 5 0 7 4 4 10 -3 6 1 7 9 4 9 -3 13 -11 9 -18 -3 -6 4 -2 16
8 22 20 22 20 15 0 -6 -16 -5 -17 7 -6 17 16 37 16 21 0 -7 -7 -12 -17 -12
-23 0 -5 4 -4 9 4 6 10 19 12 45 7 20 -4 34 -11 31 -17 -4 -5 -1 -9 5 -9 7 0
10 6 7 13 -2 7 6 18 19 24 13 6 22 7 18 2 -3 -5 2 -9 10 -9 9 0 16 6 17 13 0
6 5 2 11 -11 6 -12 15 -22 20 -22 10 0 6 23 -7 33 -5 4 3 5 19 3 17 -3 37 0
45 7 11 9 10 3 -3 -18 -13 -20 -15 -26 -4 -18 8 7 17 12 19 10 2 -1 3 0 2 2
-2 2 2 10 8 18 9 10 15 11 26 2 11 -9 17 -9 26 1 10 10 9 11 -2 5 -9 -5 -12
-4 -7 3 4 6 13 9 21 6 8 -4 12 -11 8 -18 -4 -7 -1 -7 9 1 8 7 18 10 22 6 4 -4
3 5 -3 19 -7 19 -7 29 1 34 6 4 8 3 5 -3 -4 -6 1 -19 9 -29 9 -10 12 -13 9 -6
-9 17 23 52 41 45 8 -3 11 -10 7 -16 -3 -6 -1 -7 6 -3 6 4 9 12 6 17 -4 5 1
12 9 15 9 3 13 11 9 18 -4 6 2 4 12 -4 11 -9 16 -10 11 -2 -7 11 5 17 28 13 5
-1 3 6 -5 15 -13 16 -12 16 11 4 21 -10 23 -10 13 1 -18 18 -16 30 2 23 10 -4
15 0 15 11 0 10 -5 14 -12 9 -8 -4 -10 -3 -5 2 5 5 18 9 30 9 11 0 22 6 25 13
2 6 -1 12 -8 12 -6 0 -8 -5 -4 -12 4 -7 3 -8 -4 -4 -6 4 -9 13 -6 21 4 8 10
12 15 9 5 -3 9 0 9 5 0 6 4 11 10 11 5 0 6 -8 3 -17 -6 -15 -5 -16 9 -3 14 13
14 16 -1 27 -12 9 -13 15 -5 23 9 9 14 9 19 -1 6 -8 4 -10 -5 -4 -9 5 -11 4
-6 -4 13 -21 25 -1 16 29 -6 21 -4 32 6 41 7 6 11 16 8 21 -4 6 3 5 15 -1 19
-11 20 -10 11 13 -6 17 -6 27 2 32 7 5 8 2 3 -7 -5 -8 -4 -10 0 -6 12 10 16
39 5 32 -5 -3 -12 0 -16 6 -4 8 -3 9 4 5 7 -4 12 -2 12 5 0 8 5 7 18 -2 15
-12 16 -12 4 2 -10 13 -9 19 3 29 11 9 12 16 5 25 -7 8 -7 15 -1 19 5 3 11 0
14 -6 2 -7 3 10 2 37 -1 28 2 56 8 63 7 9 6 11 -6 7 -18 -8 -32 11 -16 21 8 5
9 3 4 -6 -5 -8 -4 -11 3 -6 11 7 8 77 -4 98 -4 6 -3 8 3 5 5 -3 10 1 10 9 0 8
-6 13 -13 10 -8 -3 -16 -1 -19 5 -4 5 -3 9 2 8 20 -3 25 2 13 16 -11 13 -10
14 3 9 13 -5 15 0 11 21 -3 20 -1 25 8 19 10 -6 11 -5 1 8 -7 8 -10 18 -6 21
3 4 0 15 -8 24 -8 10 -14 37 -14 60 0 31 -3 39 -12 31 -6 -5 -9 -17 -6 -26 4
-14 3 -14 -5 -3 -7 10 -7 20 1 32 8 13 7 21 -6 34 -15 14 -15 35 -1 35 3 0 3
-4 0 -9 -3 -5 1 -12 9 -15 12 -4 13 -2 6 13 -6 10 -7 22 -3 26 4 5 2 5 -5 1
-7 -4 -13 2 -15 16 -2 13 -9 22 -16 20 -8 -1 -11 2 -7 8 3 6 11 8 16 5 5 -4 9
-1 9 4 0 10 -20 15 -42 12 -4 0 -5 9 -3 21 3 12 -1 26 -8 30 -9 6 -9 8 1 8 6
0 12 5 12 10 0 7 -6 7 -19 0 -17 -8 -19 -7 -17 14 2 15 -1 23 -9 20 -6 -3 -17
1 -23 9 -9 11 -8 14 3 14 8 0 11 -5 8 -10 -3 -6 -1 -7 6 -3 13 9 5 26 -12 26
-14 0 -43 40 -39 54 2 5 -3 4 -10 -1 -13 -12 -48 5 -48 22 0 5 10 0 23 -11
l22 -19 -19 23 c-11 13 -26 20 -34 17 -12 -5 -13 -3 -2 10 11 13 10 14 -3 9
-8 -3 -26 0 -39 7 -13 7 -28 12 -33 11 -6 -1 -15 8 -20 20 -10 22 -48 30 -72
15 -7 -4 -16 0 -22 10 -9 16 -12 16 -21 3 -6 -9 -10 -10 -10 -3 0 22 23 26 37
8 12 -17 13 -17 13 -2 0 9 -5 17 -11 17 -5 0 -8 4 -5 8 2 4 -4 8 -14 8 -10 0
-17 -3 -16 -6 2 -3 -5 -13 -16 -22 -19 -19 -26 -10 -6 10 6 6 9 15 5 18 -3 4
-13 -1 -22 -10 -19 -19 -32 -22 -17 -3 9 10 -7 13 -84 13 -89 0 -99 -3 -95
-29 1 -5 -3 -5 -9 -2 -6 4 -9 13 -6 21 7 18 -5 17 -22 -2z m-196 -106 c4 -7 3
-8 -4 -4 -7 4 -12 2 -12 -3 0 -6 -7 -11 -15 -11 -13 0 -14 3 -3 15 16 18 25
19 34 3z m759 -68 c3 -6 -1 -7 -9 -4 -18 7 -21 14 -7 14 6 0 13 -4 16 -10z
m-482 -83 c-4 -6 -1 -7 6 -3 7 5 10 14 8 20 -5 13 27 15 39 4 3 -4 17 -3 30 2
15 6 26 5 30 -2 5 -7 2 -8 -7 -3 -8 5 -10 4 -6 0 10 -12 39 -16 32 -5 -3 5 -1
11 4 14 5 4 12 2 16 -4 4 -6 11 -8 16 -4 5 3 9 2 8 -3 -3 -19 2 -33 12 -33 5
0 7 6 3 13 -5 7 0 6 12 -3 26 -20 34 -32 28 -42 -3 -5 -2 -8 3 -7 21 4 24 -2
12 -18 -13 -16 -12 -17 4 -4 13 10 20 11 30 2 8 -6 18 -7 22 -3 5 4 5 2 1 -5
-3 -6 -2 -14 4 -18 6 -4 8 -10 5 -15 -3 -5 -1 -11 5 -15 6 -4 8 -11 5 -16 -4
-5 -1 -9 4 -9 6 0 11 -5 11 -11 0 -5 -4 -8 -8 -5 -5 3 -9 -10 -9 -29 0 -19 4
-35 9 -35 5 0 6 -5 2 -12 -4 -7 -3 -8 5 -4 9 6 9 11 0 22 -9 11 -8 14 3 14 17
0 20 -29 5 -48 -8 -11 -7 -13 7 -10 22 4 32 -30 11 -38 -8 -3 -11 -12 -8 -20
3 -8 9 -12 13 -9 11 7 7 -39 -5 -47 -6 -5 -5 -8 3 -8 6 0 12 -5 12 -11 0 -5
-4 -8 -8 -5 -5 3 -9 -1 -9 -9 0 -8 4 -12 8 -10 3 3 9 -4 12 -15 3 -11 1 -18
-3 -15 -5 3 -11 1 -15 -5 -3 -5 0 -10 7 -10 9 0 9 -3 -2 -10 -10 -6 -11 -10
-2 -10 6 0 12 -5 12 -11 0 -5 -5 -7 -11 -3 -7 4 -7 -1 1 -15 9 -17 9 -26 -1
-37 -9 -11 -9 -14 2 -15 10 0 11 -2 1 -6 -15 -6 -16 -33 -2 -33 6 0 5 -6 -2
-14 -7 -8 -17 -11 -23 -8 -5 3 -4 -1 2 -10 7 -8 10 -18 6 -22 -4 -4 1 -4 12 0
20 7 20 6 0 -9 -15 -11 -22 -12 -28 -4 -5 7 -6 2 -2 -10 5 -19 3 -22 -12 -17
-15 5 -15 4 -3 -5 11 -7 20 -5 35 7 19 16 19 16 5 -3 -19 -25 -32 -35 -41 -30
-5 4 -4 -26 2 -62 5 -28 -2 -36 -16 -17 -14 18 -14 18 -10 -4 3 -19 1 -21 -9
-13 -10 8 -12 4 -11 -19 2 -36 -10 -59 -18 -35 -5 10 -3 14 5 9 7 -4 8 -3 4 5
-6 8 -12 9 -20 2 -7 -6 -15 -9 -18 -6 -2 3 -5 -2 -5 -10 0 -12 3 -12 16 -2 14
10 14 10 4 -4 -7 -9 -10 -18 -7 -22 3 -3 -3 -3 -14 0 -13 3 -25 -3 -35 -18
-14 -19 -18 -20 -33 -8 -15 12 -16 11 -11 -11 4 -14 4 -19 1 -12 -3 6 -14 12
-23 12 -10 0 -21 3 -25 7 -15 15 -34 11 -31 -8 2 -10 -1 -21 -6 -25 -5 -3 -9
-2 -8 3 4 22 -2 25 -16 7 -13 -16 -14 -16 -9 -1 4 12 1 17 -11 17 -9 0 -14 -4
-11 -9 4 -5 -2 -8 -11 -6 -10 2 -22 4 -28 4 -5 1 -3 5 5 10 8 6 18 7 22 5 4
-3 8 0 8 5 0 6 -10 10 -22 8 -15 -1 -22 3 -20 11 1 8 -2 11 -7 7 -6 -3 -7 -13
-4 -23 6 -16 6 -16 -11 0 -9 10 -15 22 -12 26 3 5 -1 9 -8 9 -8 0 -12 -7 -9
-16 3 -12 2 -12 -7 2 -12 19 -36 24 -24 5 4 -7 3 -8 -5 -4 -9 6 -9 11 0 22 15
18 10 23 -23 26 -26 2 -29 12 -14 37 6 10 5 12 -2 7 -8 -5 -12 0 -12 13 0 12
-5 21 -11 21 -6 0 -9 7 -6 15 4 8 1 17 -5 21 -6 4 -8 3 -4 -4 3 -6 1 -14 -6
-18 -7 -4 -10 -4 -6 1 4 4 2 15 -5 23 -9 13 -9 14 1 8 17 -10 15 10 -4 28 -8
9 -11 16 -6 16 15 0 23 28 10 36 -6 4 -8 3 -4 -4 3 -6 1 -14 -6 -18 -7 -4 -10
-3 -5 1 4 5 0 19 -9 33 -9 13 -12 22 -8 19 5 -3 15 1 22 9 7 8 8 14 2 14 -5 0
-10 7 -10 16 0 11 6 14 18 10 16 -6 16 -5 0 8 -20 15 -24 36 -6 36 6 0 8 3 5
6 -4 4 -13 2 -20 -4 -11 -9 -16 -7 -25 13 -6 14 -8 24 -4 24 20 -3 33 2 27 11
-4 6 -11 8 -16 5 -5 -3 -6 1 -3 9 3 9 10 16 16 16 5 0 6 5 3 10 -4 6 -11 7
-17 4 -7 -4 -8 -2 -4 5 4 6 13 9 19 5 7 -3 3 2 -8 11 -20 17 -20 17 2 11 12
-4 24 -2 28 3 4 7 -1 8 -11 4 -11 -4 -15 -3 -10 5 4 7 -1 10 -14 7 -11 -2 -18
0 -15 6 4 5 11 6 17 3 8 -5 9 -1 4 11 -5 15 -4 16 9 5 13 -11 14 -10 8 6 -6
17 -5 18 12 4 17 -13 18 -13 10 0 -6 8 -10 20 -10 25 0 6 -8 9 -17 7 -9 -1
-19 2 -23 8 -3 5 0 7 9 4 11 -4 14 2 12 24 -1 21 2 28 11 25 7 -3 13 0 13 6 0
6 -4 11 -10 11 -5 0 -10 5 -10 11 0 5 4 8 9 5 13 -8 21 18 11 34 -6 9 -2 19 8
28 12 10 13 12 2 7 -10 -4 -9 -2 2 8 10 8 14 18 10 22 -4 5 2 5 13 2 18 -6 18
-5 3 5 -15 11 -15 13 5 23 16 8 21 18 19 35 -4 25 -3 25 13 5 9 -11 13 -14 10
-7 -11 22 15 63 36 57 9 -3 21 0 25 6 5 8 3 10 -7 4 -8 -4 -5 1 6 12 20 20 20
20 38 0 9 -11 17 -15 17 -9 0 6 -5 14 -11 18 -8 4 -7 9 2 15 16 10 41 -9 32
-24z m267 -47 c0 -5 -2 -10 -4 -10 -3 0 -8 5 -11 10 -3 6 -1 10 4 10 6 0 11
-4 11 -10z m-430 -46 c0 -8 -19 -13 -24 -6 -3 5 1 9 9 9 8 0 15 -2 15 -3z
m-325 -74 c4 -6 -1 -7 -11 -3 -13 5 -15 3 -9 -7 5 -9 4 -11 -4 -6 -6 4 -9 12
-6 17 8 12 22 12 30 -1z m250 -180 c-3 -5 -12 -10 -18 -10 -7 0 -6 4 3 10 19
12 23 12 15 0z m-306 -133 c8 -10 7 -14 -2 -14 -8 0 -14 6 -14 14 0 7 1 13 2
13 2 0 8 -6 14 -13z m1211 -51 c0 -2 -8 -10 -17 -17 -16 -13 -17 -12 -4 4 13
16 21 21 21 13z m-917 -49 c4 3 7 4 7 0 0 -18 -21 -14 -30 5 -10 21 -10 21 3
6 8 -10 17 -15 20 -11z m-282 -40 c-10 -9 -11 -8 -5 6 3 10 9 15 12 12 3 -3 0
-11 -7 -18z m1192 -2 c-7 -21 -12 -19 -10 4 0 11 5 18 9 15 4 -3 5 -11 1 -19z
m7 -39 c0 -11 -19 -15 -25 -6 -3 5 1 10 9 10 9 0 16 -2 16 -4z m-25 -63 c-18
-18 -30 -17 -16 1 9 11 10 20 1 38 -11 23 -11 23 8 -1 16 -20 18 -27 7 -38z
m-300 -43 c-3 -5 -11 -10 -16 -10 -6 0 -7 5 -4 10 3 6 11 10 16 10 6 0 7 -4 4
-10z m-226 -207 c4 -3 -28 2 -47 6 -2 1 0 6 3 11 5 8 12 7 23 -2 10 -7 19 -14
21 -15z m-99 -213 c0 -5 -2 -10 -4 -10 -3 0 -8 5 -11 10 -3 6 -1 10 4 10 6 0
11 -4 11 -10z"/>
<path d="M817 1889 c4 -13 8 -18 11 -10 2 7 -1 18 -6 23 -8 8 -9 4 -5 -13z"/>
<path d="M610 1880 c0 -5 5 -10 11 -10 5 0 7 5 4 10 -3 6 -8 10 -11 10 -2 0
-4 -4 -4 -10z"/>
<path d="M870 1861 c0 -5 5 -13 10 -16 6 -3 10 -2 10 4 0 5 -4 13 -10 16 -5 3
-10 2 -10 -4z"/>
<path d="M549 1843 c-13 -16 -12 -17 4 -4 9 7 17 15 17 17 0 8 -8 3 -21 -13z"/>
<path d="M940 1800 c0 -5 5 -10 11 -10 5 0 7 -4 4 -10 -3 -5 2 -10 11 -10 16
0 16 1 -1 20 -20 23 -25 24 -25 10z"/>
<path d="M970 1750 c0 -5 5 -10 11 -10 5 0 7 5 4 10 -3 6 -8 10 -11 10 -2 0
-4 -4 -4 -10z"/>
<path d="M1021 1597 c-8 -10 -7 -14 2 -14 8 0 14 6 14 14 0 7 -1 13 -2 13 -2
0 -8 -6 -14 -13z"/>
<path d="M435 1580 c-3 -5 -1 -10 4 -10 6 0 11 5 11 10 0 6 -2 10 -4 10 -3 0
-8 -4 -11 -10z"/>
<path d="M428 1373 c-10 -2 -18 -9 -18 -14 0 -6 8 -5 20 1 11 6 20 13 20 15 0
3 -1 4 -2 4 -2 -1 -11 -3 -20 -6z"/>
<path d="M435 1240 c-3 -5 -1 -10 4 -10 6 0 11 5 11 10 0 6 -2 10 -4 10 -3 0
-8 -4 -11 -10z"/>
<path d="M490 1116 c0 -8 4 -17 9 -20 5 -4 7 3 4 14 -6 23 -13 26 -13 6z"/>
<path d="M507 1029 c7 -7 15 -10 18 -7 3 3 -2 9 -12 12 -14 6 -15 5 -6 -5z"/>
<path d="M836 964 c-4 -9 -4 -19 -1 -22 2 -3 7 3 11 12 4 9 4 19 1 22 -2 3 -7
-3 -11 -12z"/>
<path d="M997 2099 c4 -13 8 -18 11 -10 2 7 -1 18 -6 23 -8 8 -9 4 -5 -13z"/>
<path d="M435 2089 c-4 -6 -5 -12 -2 -15 2 -3 7 2 10 11 7 17 1 20 -8 4z"/>
<path d="M1020 2091 c0 -6 4 -13 10 -16 6 -3 7 1 4 9 -7 18 -14 21 -14 7z"/>
<path d="M216 1866 c4 -11 2 -16 -7 -14 -7 2 -13 -3 -14 -10 0 -7 -7 -17 -15
-22 -8 -5 -10 -10 -5 -9 6 0 23 10 38 23 25 20 26 24 12 36 -13 11 -15 10 -9
-4z"/>
<path d="M1715 1800 c-3 -5 -1 -10 4 -10 6 0 11 5 11 10 0 6 -2 10 -4 10 -3 0
-8 -4 -11 -10z"/>
<path d="M2171 1800 c3 -22 -12 -51 -22 -44 -5 3 -6 10 -3 16 4 7 2 8 -5 4 -6
-4 -8 -12 -5 -18 5 -8 1 -9 -10 -5 -10 4 -15 3 -11 -3 3 -6 1 -10 -4 -10 -13
0 -10 -22 4 -33 6 -4 -3 -5 -20 -3 -27 5 -28 4 -12 -8 17 -13 24 -32 8 -22
-14 9 -42 -5 -35 -16 4 -6 10 -5 16 3 8 11 9 11 5 -1 -2 -8 -11 -14 -20 -14
-9 1 -13 -4 -10 -12 3 -8 10 -11 17 -8 6 3 3 -1 -6 -9 -10 -8 -15 -17 -11 -20
3 -4 -1 -7 -10 -7 -9 0 -17 -5 -17 -11 0 -5 4 -8 9 -4 5 3 13 0 17 -7 4 -7 4
-10 -1 -6 -11 11 -36 -12 -28 -25 3 -6 1 -7 -6 -3 -9 6 -9 11 -1 21 8 10 8 15
-1 21 -7 4 -9 3 -5 -4 3 -6 2 -13 -4 -17 -7 -4 -7 -12 0 -25 7 -13 6 -19 -6
-24 -8 -3 -13 -10 -9 -15 3 -5 1 -12 -4 -15 -5 -4 -13 -2 -16 4 -5 8 -11 7
-21 -1 -10 -8 -14 -8 -14 0 0 6 5 11 11 11 8 0 7 6 -2 18 -11 14 -10 13 9 -2
12 -11 22 -14 22 -9 0 6 -7 14 -16 17 -8 3 -12 11 -8 17 4 8 0 8 -15 0 -12 -7
-21 -8 -21 -2 0 5 6 12 13 14 12 5 -19 11 -38 7 -5 -1 -1 9 10 21 11 12 14 19
8 15 -8 -4 -13 -1 -13 8 0 9 -5 16 -11 16 -5 0 -8 -4 -5 -8 3 -5 -2 -9 -10 -9
-10 0 -11 4 -4 11 12 12 14 29 2 22 -4 -2 -9 6 -10 20 -1 13 3 24 9 24 5 0 7
5 4 11 -5 6 -11 4 -19 -6 -10 -14 -12 -12 -14 11 -1 15 -6 32 -12 39 -5 6 -7
15 -3 19 4 4 -1 4 -12 0 -14 -6 -17 -4 -13 8 7 17 -20 21 -40 5 -7 -6 -12 -6
-11 -1 4 23 -2 26 -17 8 -8 -10 -13 -14 -10 -8 3 7 -3 14 -14 17 -13 3 -18 1
-14 -6 5 -8 2 -7 -7 1 -20 18 -33 15 -18 -5 13 -17 13 -17 -5 -3 -11 8 -21 14
-23 13 -9 -7 -23 -2 -18 7 3 6 -1 7 -10 4 -11 -5 -13 -10 -5 -19 7 -8 5 -12
-5 -12 -8 0 -12 4 -9 9 3 4 0 8 -6 8 -6 0 -9 4 -6 9 4 5 -2 8 -11 7 -9 -2 -19
-8 -21 -14 -3 -9 -9 -9 -23 -2 -23 13 -25 7 -4 -13 13 -13 13 -16 -1 -21 -8
-3 -13 -2 -10 3 3 5 -2 15 -12 22 -14 11 -15 11 -5 -1 9 -10 10 -17 2 -27 -8
-9 -7 -14 5 -19 9 -3 14 -9 11 -13 -2 -4 2 -8 10 -8 11 0 12 4 4 14 -8 9 -8
13 0 13 11 0 15 -13 12 -39 -2 -7 2 -11 7 -7 8 5 12 -7 13 -46 0 -10 6 -18 14
-18 9 0 12 8 10 20 -2 11 0 18 5 15 9 -6 6 -37 -6 -58 -6 -9 -4 -9 8 1 13 10
18 10 24 1 4 -8 3 -9 -4 -5 -8 5 -12 0 -12 -13 0 -12 5 -21 10 -21 6 0 10 5
10 12 0 6 2 9 5 6 3 -3 1 -17 -4 -32 -6 -14 -7 -25 -3 -25 4 1 16 1 27 0 15
-1 17 -3 6 -10 -11 -7 -11 -9 0 -14 12 -4 11 -7 -1 -16 -8 -6 -10 -11 -4 -11
5 0 16 6 23 13 11 10 11 8 1 -12 -8 -15 -8 -21 -1 -17 6 4 11 0 11 -9 0 -9 4
-14 8 -11 4 2 13 -4 20 -15 14 -21 3 -26 -17 -6 -8 6 -6 0 4 -15 9 -16 24 -28
31 -28 17 0 18 -22 2 -39 -11 -10 -10 -12 2 -9 8 2 14 -2 13 -9 -2 -6 5 -10
15 -8 12 2 18 -3 19 -16 1 -10 -3 -19 -8 -19 -6 0 -7 4 -4 10 4 6 -1 7 -11 3
-14 -5 -13 -8 7 -19 13 -7 27 -10 31 -8 5 3 8 0 8 -7 0 -6 -8 -9 -20 -6 -11 3
-17 1 -14 -4 3 -5 -1 -11 -8 -14 -8 -3 -15 -15 -15 -27 -1 -12 -7 -25 -14 -29
-6 -4 -9 -17 -6 -29 4 -15 2 -19 -6 -12 -8 6 -18 2 -29 -10 -14 -14 -15 -18
-4 -18 8 0 16 5 18 12 3 8 7 6 11 -5 3 -9 3 -16 -1 -16 -4 1 -14 1 -22 0 -13
-1 -13 -2 0 -11 11 -7 11 -10 2 -10 -7 0 -10 -4 -7 -10 3 -6 -1 -7 -9 -4 -9 3
-13 11 -9 18 3 6 2 7 -3 3 -5 -5 -10 -13 -10 -18 -1 -5 -2 -14 -3 -20 0 -5 -6
-7 -13 -3 -7 4 -8 3 -4 -5 6 -9 11 -9 22 0 8 6 14 8 14 4 0 -4 -8 -14 -17 -21
-12 -9 -14 -13 -5 -14 7 0 10 -5 7 -11 -5 -6 -12 -4 -21 8 -15 21 -19 10 -5
-16 7 -13 6 -18 -4 -18 -8 0 -12 4 -9 8 2 4 -1 11 -8 15 -7 4 -10 4 -6 -1 4
-4 2 -15 -5 -23 -9 -13 -9 -14 1 -8 18 11 15 -5 -5 -21 -10 -8 -12 -12 -5 -8
6 3 12 1 12 -4 0 -6 -9 -11 -19 -11 -11 0 -23 -5 -27 -12 -4 -7 -3 -8 4 -4 19
11 14 -5 -5 -21 -17 -13 -16 -13 6 -7 21 5 22 4 10 -9 -8 -8 -17 -13 -21 -11
-4 2 -10 -1 -14 -7 -4 -7 -3 -9 4 -5 6 3 13 2 17 -4 3 -5 -1 -10 -10 -10 -9 0
-13 -4 -10 -10 3 -5 1 -10 -4 -10 -6 0 -11 6 -11 13 0 8 -3 7 -10 -3 -6 -9 -5
-17 3 -22 7 -4 9 -8 5 -9 -5 -1 -12 -3 -18 -4 -5 -1 -13 -3 -16 -4 -4 0 -1 -8
6 -16 6 -8 8 -20 4 -27 -4 -7 -4 -10 0 -6 5 4 19 3 33 -3 16 -6 22 -5 18 1 -4
6 2 7 17 1 12 -4 37 -5 55 -1 18 5 35 4 38 0 3 -4 20 -4 39 0 22 5 38 4 45 -3
8 -8 11 -8 11 0 0 6 9 13 21 16 15 4 19 2 15 -9 -4 -9 -2 -12 5 -8 6 3 9 15 6
25 -3 11 -1 19 4 19 5 0 9 -5 9 -12 0 -6 3 -8 6 -5 4 4 1 14 -7 24 -12 15 -12
16 4 10 15 -6 16 -4 6 16 -12 21 -11 21 6 7 15 -12 17 -12 10 -1 -6 11 -4 13
8 8 12 -4 14 -2 10 10 -5 12 -3 14 7 8 9 -6 11 -4 5 4 -5 9 -10 10 -18 2 -6
-6 -16 -11 -21 -11 -6 0 0 7 12 16 13 9 19 20 15 27 -4 7 2 5 12 -3 17 -14 18
-14 6 9 -11 19 -11 25 0 32 8 5 19 7 26 4 7 -2 15 0 18 5 4 6 -2 10 -11 10
-16 0 -16 1 2 16 10 8 14 13 8 10 -6 -3 -11 1 -11 8 0 9 8 11 21 8 20 -5 20
-5 4 12 -20 19 -24 31 -8 21 18 -11 51 -14 45 -4 -4 5 -12 6 -18 2 -8 -5 -8
-2 0 9 7 8 12 17 10 19 -1 2 4 -2 11 -10 10 -13 12 -12 12 4 0 17 1 17 20 0
16 -15 18 -21 7 -33 -9 -13 -9 -14 1 -8 8 5 12 0 12 -13 0 -12 5 -21 11 -21 5
0 7 6 3 13 -5 8 -2 8 9 -2 19 -15 22 -31 6 -31 -5 0 -7 5 -3 12 5 7 3 8 -5 3
-9 -5 -9 -11 -3 -17 6 -6 9 -16 7 -22 -3 -6 6 -24 19 -40 17 -20 26 -25 31
-16 5 8 4 11 -1 7 -6 -3 -15 3 -22 13 -9 14 -9 21 0 26 7 4 8 3 4 -4 -4 -6 5
-18 21 -26 15 -8 23 -15 17 -16 -7 0 -14 -13 -16 -29 -3 -21 -1 -28 9 -24 13
5 17 -6 14 -37 -1 -11 1 -10 9 3 12 18 30 15 30 -6 0 -8 -3 -7 -9 2 -7 10 -9
7 -8 -12 1 -16 6 -22 11 -16 15 14 24 11 29 -8 4 -15 5 -15 6 2 1 17 3 18 11
5 9 -13 10 -13 11 0 0 10 3 8 9 -5 l9 -20 0 20 c1 17 3 18 11 5 8 -12 11 -13
19 -1 6 9 11 10 15 2 4 -6 12 -11 17 -11 6 0 7 6 3 13 -5 8 -2 8 9 -2 12 -9
17 -10 17 -2 0 7 5 9 12 5 7 -4 28 -8 48 -9 19 0 42 -4 50 -9 12 -7 13 -6 3 5
-18 18 -16 34 2 19 8 -7 15 -11 16 -9 6 30 5 38 -3 50 -8 11 -9 10 -4 -3 3
-12 1 -15 -9 -12 -8 3 -14 9 -13 12 2 19 -3 33 -10 28 -11 -7 -12 26 -1 40 6
8 1 10 -17 8 -14 -1 -23 0 -20 3 3 3 1 15 -5 26 -9 15 -8 18 3 11 11 -6 11 -5
0 8 -7 9 -9 18 -5 20 4 3 2 3 -6 1 -10 -2 -12 4 -7 24 l6 28 -13 -24 c-12 -20
-15 -21 -20 -7 -4 10 -3 15 3 11 6 -3 10 -2 10 3 0 5 -10 12 -22 15 -18 5 -19
8 -8 21 11 14 9 16 -9 16 -11 0 -21 5 -21 10 0 6 3 9 8 8 4 -2 8 1 10 6 1 6
-4 11 -13 12 -8 1 -15 -3 -15 -9 0 -5 -3 -8 -6 -4 -3 3 -2 12 2 19 11 17 14
39 5 34 -4 -3 -13 -1 -21 5 -10 6 -11 9 -2 9 6 0 12 4 12 10 0 5 -8 7 -17 4
-15 -5 -15 -3 2 12 16 13 16 15 3 11 -12 -4 -19 1 -24 16 -5 12 -7 26 -6 30 1
5 -2 6 -8 2 -6 -3 -7 -11 -4 -17 4 -7 2 -8 -4 -4 -6 4 -8 14 -5 23 5 12 3 14
-8 8 -11 -6 -12 -5 -1 6 6 7 12 18 12 23 0 6 -5 4 -10 -4 -9 -13 -10 -13 -11
0 -1 8 -1 19 0 24 1 5 -4 4 -11 -2 -11 -9 -14 -6 -12 19 1 16 7 35 13 43 8 9
7 16 -2 25 -9 10 -8 11 6 5 10 -3 17 -3 16 2 -3 20 2 34 12 34 8 0 8 -5 -1
-15 -7 -8 -9 -15 -6 -15 4 0 14 7 22 15 9 9 11 15 4 15 -6 0 -9 4 -6 9 4 5 0
12 -6 14 -10 4 -10 6 0 6 7 1 10 7 7 14 -4 6 0 4 8 -6 13 -16 15 -16 21 -2 3
9 2 14 -3 11 -5 -3 -11 1 -14 9 -4 10 -1 12 10 8 11 -4 14 -2 9 5 -4 7 -1 12
10 12 14 0 15 2 3 17 -12 14 -12 15 0 9 10 -7 12 -3 6 15 -7 23 -7 24 9 4 15
-19 15 -19 11 6 -4 19 0 29 12 34 14 5 15 3 6 -6 -13 -13 -7 -39 10 -39 8 0 7
4 -1 12 -9 9 -9 15 0 26 9 10 9 15 -2 22 -11 7 -11 12 -2 23 7 7 8 18 4 22 -4
5 -1 5 6 1 7 -4 15 -1 18 8 3 9 10 13 15 10 5 -3 9 0 9 6 0 6 5 8 12 4 7 -4 8
-3 4 4 -4 6 -2 21 5 33 6 13 7 19 1 15 -6 -3 -14 -1 -18 6 -4 7 -4 10 1 6 14
-13 45 11 38 29 -5 12 -3 14 7 8 10 -6 12 -4 7 9 -5 14 -3 17 8 12 19 -7 19 1
1 20 -17 17 -30 19 -20 2 4 -7 3 -8 -5 -4 -6 4 -9 12 -6 17 4 5 -3 9 -14 9
-10 0 -22 -6 -24 -12 -4 -10 -6 -10 -6 -1 -1 7 -8 10 -16 7 -8 -4 -15 -1 -15
4 0 6 9 9 19 7 19 -3 23 16 7 32 -4 4 -6 1 -4 -7 2 -8 -3 -14 -11 -15 -8 0
-17 -9 -22 -20 -6 -17 -8 -17 -8 -2 -1 9 -6 17 -12 17 -5 0 -7 -5 -3 -12 4 -6
3 -8 -4 -4 -5 3 -12 3 -15 -1 -2 -5 -2 -3 -1 4 2 7 -2 15 -8 19 -6 4 -8 3 -4
-4 3 -6 2 -13 -3 -16 -5 -4 -12 2 -14 11 -3 13 -5 10 -6 -7 -1 -19 -3 -22 -10
-10 -6 8 -7 18 -4 24 3 5 1 6 -5 2 -6 -3 -16 2 -22 11 -8 13 -10 14 -9 3z
m-614 -42 c-3 -8 -6 -5 -6 6 -1 11 2 17 5 13 3 -3 4 -12 1 -19z m637 1 c-3 -5
-10 -7 -15 -3 -5 3 -7 10 -3 15 3 5 10 7 15 3 5 -3 7 -10 3 -15z m-380 -45 c5
-14 4 -15 -9 -4 -17 14 -19 20 -6 20 5 0 12 -7 15 -16z m540 -89 c-4 -8 -11
-15 -16 -15 -6 0 -5 6 2 15 7 8 14 15 16 15 2 0 1 -7 -2 -15z m-608 -290 c-3
-8 0 -15 6 -15 6 0 9 -3 5 -6 -10 -11 -26 6 -20 21 3 8 7 15 10 15 3 0 3 -7
-1 -15z m12 -145 c-7 -10 -14 -18 -15 -16 -6 6 9 36 18 36 5 0 4 -9 -3 -20z
m449 -82 c-3 -8 -6 -5 -6 6 -1 11 2 17 5 13 3 -3 4 -12 1 -19z m-154 -223 c-3
-9 -8 -14 -10 -11 -3 3 -2 9 2 15 9 16 15 13 8 -4z m-463 1 c0 -3 -4 -8 -10
-11 -5 -3 -10 -1 -10 4 0 6 5 11 10 11 6 0 10 -2 10 -4z m-85 -144 c-3 -3 -11
0 -18 7 -9 10 -8 11 6 5 10 -3 15 -9 12 -12z"/>
<path d="M1330 1639 c0 -5 5 -7 10 -4 6 3 10 8 10 11 0 2 -4 4 -10 4 -5 0 -10
-5 -10 -11z"/>
<path d="M109 1583 c-13 -16 -12 -17 4 -4 9 7 17 15 17 17 0 8 -8 3 -21 -13z"/>
<path d="M2316 1562 c-13 -15 -13 -19 -2 -19 8 0 15 3 14 6 -2 18 4 22 16 12
11 -9 16 -9 22 1 4 7 4 10 -1 6 -4 -4 -14 -3 -20 2 -8 7 -17 4 -29 -8z"/>
<path d="M102 1354 c10 -10 20 -16 22 -13 3 3 -5 11 -17 18 -21 13 -21 12 -5
-5z"/>
<path d="M158 1073 c7 -3 16 -2 19 1 4 3 -2 6 -13 5 -11 0 -14 -3 -6 -6z"/>
<path d="M1261 1026 c-8 -10 -9 -16 -1 -21 5 -3 10 -5 11 -3 4 18 7 38 4 38
-1 0 -8 -6 -14 -14z"/>
<path d="M1865 880 c-3 -5 1 -10 10 -10 9 0 13 5 10 10 -3 6 -8 10 -10 10 -2
0 -7 -4 -10 -10z"/>
<path d="M2376 848 c3 -5 10 -6 15 -3 13 9 11 12 -6 12 -8 0 -12 -4 -9 -9z"/>
<path d="M415 760 c-3 -5 1 -10 10 -10 9 0 13 5 10 10 -3 6 -8 10 -10 10 -2 0
-7 -4 -10 -10z"/>
<path d="M815 691 c-3 -5 -1 -12 5 -16 5 -3 10 1 10 9 0 18 -6 21 -15 7z"/>
<path d="M725 681 c-3 -6 4 -15 16 -21 15 -8 19 -9 15 -1 -10 15 7 14 24 -1
12 -11 12 -10 2 3 -6 9 -8 19 -4 24 4 4 -3 3 -15 -4 -27 -14 -36 -14 -28 -1 3
6 4 10 1 10 -3 0 -7 -4 -11 -9z"/>
</g>
</svg>
